<svg xmlns="http://www.w3.org/2000/svg" style="display: none;">
  <symbol id="heart-icon" viewBox="0 0 27 24">
    <g id="heart">
      <path
        class="contour"
        d="M6 0H3v3h3V0ZM9 0H6v3h3V0ZM3 3H0v3h3V3ZM3 6H0v3h3V6ZM3 9H0v3h3V9ZM12 0H9v3h3V0ZM6 12H3v3h3v-3ZM9 15H6v3h3v-3ZM12 18H9v3h3v-3ZM21 0h3v3h-3V0ZM18 0h3v3h-3V0ZM24 3h3v3h-3V3ZM24 6h3v3h-3V6ZM24 9h3v3h-3V9ZM15 0h3v3h-3V0ZM21 12h3v3h-3v-3ZM18 15h3v3h-3v-3ZM15 18h3v3h-3v-3ZM15 21h-3v3h3v-3Z"
        fill="none"
        stroke="currentColor"
        stroke-width="2"
      />
      <path
        class="main-body"
        d="M12 3h-3v3h3V3ZM15 3h-3v3h3V3ZM6 6H3v3h3V6ZM9 6H6v3h3V6ZM12 6H9v3h3V6ZM15 6h-3v3h3V6ZM18 6h-3v3h3V6ZM21 6h-3v3h3V6ZM6 9H3v3h3V9ZM9 9H6v3h3V9ZM12 9H9v3h3V9ZM15 9h-3v3h3V9ZM18 9h-3v3h3V9ZM21 9h-3v3h3V9ZM6 12H3v3h3v-3ZM9 12H6v3h3v-3ZM12 12H9v3h3v-3ZM15 12h-3v3h3v-3ZM18 12h-3v3h3v-3ZM21 12h-3v3h3v-3ZM9 15H6v3h3v-3ZM12 15H9v3h3v-3ZM15 15h-3v3h3v-3ZM18 15h-3v3h3v-3Z"
        fill="none"
        stroke="currentColor"
        stroke-width="2"
      />
      <path
        class="core"
        d="M12 9H9v3h3V9ZM15 9h-3v3h3V9ZM12 12H9v3h3v-3ZM15 12h-3v3h3v-3Z"
        fill="none"
        stroke="currentColor"
        stroke-width="2"
      />
      <g class="sparks" fill="#ff0000" stroke="none">
        <path d="M13 1h1v1h-1V1ZM25 8h1v1h-1V8ZM1 8h1v1H1V8ZM22 2l1 1-1 1-1-1 1-1ZM4 2L3 3l1 1 1-1-1-1ZM22 17l1-1 1 1-1 1-1-1ZM3 17l1-1 1 1-1 1-1-1Z" />
      </g>
    </g>
  </symbol>
</svg>